<?xml version="1.0" encoding="utf-8"?>
<!-- Generator: Adobe Illustrator 16.0.0, SVG Export Plug-In . SVG Version: 6.00 Build 0)  -->
<!DOCTYPE svg PUBLIC "-//W3C//DTD SVG 1.1//EN" "http://www.w3.org/Graphics/SVG/1.1/DTD/svg11.dtd">
<svg version="1.1" id="图层_1" xmlns="http://www.w3.org/2000/svg" xmlns:xlink="http://www.w3.org/1999/xlink" x="0px" y="0px"
	 width="80px" height="80px" viewBox="0 0 80 80" enable-background="new 0 0 80 80" xml:space="preserve">
<g>
	<path fill="#4F4F4F" d="M40.31,19.896c-1.004,0-1.818,0.814-1.818,1.818v15.339c0,1.004,0.814,1.818,1.818,1.818
		c1.004,0,1.818-0.814,1.818-1.818V21.714C42.128,20.709,41.314,19.896,40.31,19.896"/>
	<path fill="#4F4F4F" d="M53.027,25.581c-0.478,0-0.952,0.186-1.311,0.557c-0.695,0.723-0.675,1.874,0.049,2.57
		c3.033,2.928,4.905,6.978,4.906,11.474c-0.001,4.437-1.82,8.439-4.781,11.358c-2.965,2.915-7.05,4.718-11.583,4.719
		c-4.533-0.001-8.617-1.804-11.581-4.719c-2.962-2.919-4.781-6.922-4.783-11.358c0.001-4.496,1.873-8.545,4.906-11.474
		c0.723-0.697,0.744-1.848,0.047-2.571c-0.357-0.37-0.833-0.556-1.309-0.556c-0.455,0-0.909,0.169-1.262,0.509l0,0
		c-3.705,3.568-6.02,8.571-6.019,14.092c-0.001,5.446,2.249,10.392,5.868,13.95c3.616,3.562,8.622,5.765,14.129,5.765
		c0.001,0,0.002,0,0.002,0c0.001,0,0.001,0,0.003,0c5.507,0,10.511-2.203,14.128-5.765c3.619-3.559,5.869-8.504,5.869-13.95
		c0-5.521-2.313-10.523-6.021-14.092C53.938,25.75,53.482,25.581,53.027,25.581"/>
</g>
</svg>
