<?xml version="1.0" encoding="utf-8"?>
<!-- Generator: Adobe Illustrator 16.0.0, SVG Export Plug-In . SVG Version: 6.00 Build 0)  -->
<!DOCTYPE svg PUBLIC "-//W3C//DTD SVG 1.1//EN" "http://www.w3.org/Graphics/SVG/1.1/DTD/svg11.dtd">
<svg version="1.1" id="图层_1" xmlns="http://www.w3.org/2000/svg" xmlns:xlink="http://www.w3.org/1999/xlink" x="0px" y="0px"
	 width="80px" height="80px" viewBox="0 0 80 80" enable-background="new 0 0 80 80" xml:space="preserve">
<g>
	<path fill="#33A5A2" d="M40,13.896c-1.255,0-2.272,1.018-2.272,2.273v19.173c0,1.255,1.017,2.273,2.272,2.273
		c1.255,0,2.273-1.019,2.273-2.273V16.168C42.273,14.913,41.256,13.896,40,13.896"/>
	<path fill="#33A5A2" d="M55.898,21.002c-0.597,0-1.191,0.232-1.638,0.696c-0.871,0.903-0.844,2.342,0.061,3.213
		c3.791,3.66,6.132,8.723,6.133,14.342c-0.001,5.546-2.275,10.55-5.978,14.198C50.771,57.095,45.665,59.349,40,59.35
		c-5.666-0.001-10.771-2.255-14.476-5.898c-3.702-3.648-5.977-8.652-5.978-14.198c0.001-5.619,2.34-10.682,6.132-14.342
		c0.903-0.871,0.93-2.31,0.059-3.214c-0.446-0.462-1.041-0.695-1.636-0.695c-0.568,0-1.137,0.211-1.577,0.636l0,0
		c-4.632,4.46-7.524,10.713-7.523,17.614c-0.001,6.808,2.812,12.989,7.335,17.438c4.521,4.451,10.777,7.204,17.661,7.204
		c0.001,0,0.003,0,0.003,0c0.001,0,0.002,0,0.004,0c6.885,0,13.141-2.753,17.662-7.204c4.522-4.449,7.336-10.631,7.335-17.438
		c0.001-6.901-2.892-13.154-7.525-17.614C57.034,21.214,56.466,21.002,55.898,21.002"/>
</g>
</svg>
